<svg version="1.1" id="Layer_1" xmlns="http://www.w3.org/2000/svg" xmlns:xlink="http://www.w3.org/1999/xlink" x="0px" y="0px" viewBox="0 0 64 64" style="enable-background:new 0 0 64 64;" xml:space="preserve">
<path d="M12.0878906,52.7158203C16.9492188,58.6162109,24.1157227,62,31.75,62s14.8007812-3.3837891,19.6621094-9.2841797
	c0.3021851-0.3668823,0.5939331-0.7424927,0.8748779-1.1260376c1.6865845-2.3025513,2.9834595-4.8919678,3.8101196-7.6054688
	c0.0137939-0.045166,0.0239258-0.0913086,0.0374146-0.1365967c0.1210938-0.4058228,0.2354126-0.8134766,0.3352051-1.2241821
	c0.000061-0.0003052,0.0001221-0.0006104,0.0001831-0.0009155c0.0005493-0.0021362,0.0012207-0.0042725,0.00177-0.0064087
	c0.0001221-0.0006104-0.0001221-0.0011597,0-0.00177c0.4897461-1.9523315,0.7382812-3.9994507,0.7382812-6.0846558v-0.7895508
	c0-0.2247925-0.0879517-0.421875-0.2131958-0.5888672l0.0134888-0.3793945c0-3.5385742-1.4052734-6.8325195-3.949707-9.2675781
	c-0.9047852-0.8857422-1.9536133-1.6347656-3.1147461-2.2250977c-1.1793823-0.6039429-2.4320068-1.0144653-3.7130737-1.2203369
	L57.4018555,11.574707c0.1972656-0.1850586,0.3110352-0.4423828,0.3154297-0.7133789
	c0.0039062-0.2705078-0.1015625-0.53125-0.2929688-0.7226562l-3.4018555-3.4013672
	c-0.190918-0.1918945-0.4472656-0.284668-0.7226562-0.2929688c-0.2705078,0.0043945-0.527832,0.1181641-0.7128906,0.3154297
	L40.2738647,19.8623657c-0.5031738-0.4069214-1.0394287-0.7775879-1.6119385-1.1105957L51.03125,7.1303711
	c0.1972656-0.1850586,0.3110352-0.4423828,0.3154297-0.7128906c0.0043945-0.2700195-0.1010742-0.5307617-0.2919922-0.722168
	l-3.3925781-3.4013672C47.4716797,2.1020508,47.2451172,1.996582,46.9389648,2
	c-0.2705078,0.0043945-0.5283203,0.1181641-0.7138672,0.3154297l-13.7831421,14.675354
	c-0.0723267-0.0015869-0.1445312-0.0059204-0.2168579-0.0059204c-3.9866333,0-7.7299194,1.8764038-10.1642456,5.0221558
	c-0.5643921-0.0779419-1.138916-0.1271362-1.7190552-0.1271362c-7.0933228,0-12.8647461,5.7661133-12.8822021,12.8603516H7.2802734
	c-0.5522461,0-1,0.4477539-1,1v0.7895508c0,2.090332,0.2490234,4.140625,0.7382812,6.0864258
	C7.9082031,46.2773438,9.6616211,49.7700195,12.0878906,52.7158203z M22.0771484,28.4135742
	c-0.0004272,0.0296021,0.0045166,0.057373,0.0066528,0.086853c0.0062866,0.0866089,0.0236206,0.1704102,0.0523071,0.2532349
	c0.0106201,0.0307007,0.0196533,0.0602417,0.0333862,0.0900269c0.0482178,0.1049805,0.1088257,0.2053223,0.1952515,0.2915649
	l1.8554688,1.8554688c0.0963745,0.0963745,0.2078247,0.1682129,0.3266602,0.217041
	c0.0427246,0.0175781,0.0890503,0.0163574,0.1333618,0.027771c0.0789185,0.0202637,0.1567383,0.0456543,0.237793,0.0463867
	c0.0031128,0,0.0061035,0.00177,0.0092163,0.00177c0.086853,0,0.1713867-0.0251465,0.2559204-0.0476074
	c0.03302-0.0087891,0.0674438-0.0062866,0.0996094-0.0185547c0.118042-0.0448608,0.2296143-0.1118774,0.3275757-0.2033691
	l0.3212891-0.3007812c0.8522949,1.1626587,1.3162842,2.5595093,1.3259277,4.0219727h-1.9820557
	c-0.0232544-2.7029419-2.2254639-4.8955078-4.9337158-4.8955078c-2.7039185,0-4.9022827,2.1925659-4.9254761,4.8955078h-1.9817505
	c0.0244141-3.7931519,3.1133423-6.8710938,6.9072266-6.8710938c0.6142578,0,1.2114258,0.0776367,1.7866211,0.2314453
	C22.0921631,28.1985474,22.0786743,28.3059082,22.0771484,28.4135742z M33.932312,23.1954346
	c0.9106445,0.2299805,1.7615356,0.6434326,2.5198975,1.2318115c-0.5402832,0.4007568-1.0499878,0.8407593-1.5213013,1.3240356
	c-0.7950439-0.5264893-1.7219849-0.8147583-2.6965332-0.8147583c-0.0587769,0-0.1154785,0.015564-0.1740723,0.0177002
	L33.932312,23.1954346z M54.1876831,43.3876953c-0.18927,0.6224976-0.4136353,1.2348022-0.6552734,1.8405762
	c-0.0457153,0.114502-0.0898438,0.2294922-0.1373901,0.3433228c-0.2429199,0.5819092-0.5090332,1.1546631-0.7984009,1.7160645
	c-0.0544434,0.1055908-0.1124878,0.2093506-0.1685181,0.3141479c-0.3031006,0.5667725-0.6231689,1.1248169-0.9718628,1.6652222
	c-0.0092163,0.0142822-0.017334,0.0292358-0.0265503,0.0435181c-0.3547974,0.5471802-0.739563,1.0744629-1.138916,1.5899658
	c-0.0464478,0.0599365-0.0925903,0.1200562-0.1395874,0.1795654H13.3487549
	c-0.0473633-0.0598755-0.09375-0.1204834-0.1405029-0.1807861c-0.4002686-0.5164185-0.7858887-1.0442505-1.1413574-1.5914917
	c-0.0107422-0.0165405-0.0202026-0.0338745-0.0308838-0.0504761c-0.3469849-0.5371704-0.6654053-1.0914917-0.9671631-1.6539307
	c-0.0584717-0.1089478-0.1188354-0.2167969-0.1755371-0.3266602c-0.2883911-0.5585938-0.5536499-1.1279907-0.7957764-1.7062378
	c-0.0488892-0.1167603-0.0942383-0.2348633-0.1412354-0.352356c-0.2410889-0.6033325-0.465271-1.2130127-0.6538696-1.8322144
	c-0.0006104-0.0020142-0.0010376-0.0040283-0.0016479-0.0060425h44.8890381
	C54.1890259,43.3825073,54.1884766,43.3851318,54.1876831,43.3876953z M8.7944336,41.3798828
	c-0.3208618-1.499939-0.4993896-3.0537109-0.5131836-4.6396484h4.1854248
	c0.0070801,0.0001221,0.0130005,0.0039062,0.0201416,0.0039062h15.7094727c0.0071411,0,0.0131226-0.0037842,0.0202637-0.0039062
	h26.9924316c-0.0137939,1.5827026-0.1919556,3.1357422-0.5134888,4.6396484H8.7944336z M41.1884766,34.7353516
	c0.0224609-1.6008911,1.3276978-2.8964844,2.9296875-2.8964844c1.605896,0,2.9150391,1.2955933,2.9375,2.8964844H41.1884766z
	 M17.4126587,34.7353516c0.0227051-1.6002808,1.3277588-2.8955078,2.9291382-2.8955078
	c1.6057739,0,2.9147339,1.2952271,2.937439,2.8955078H17.4126587z M49.0519409,34.7353516
	c-0.0229492-2.703064-2.2253418-4.8964844-4.9337769-4.8964844c-2.7041016,0-4.9030762,2.1934204-4.9259644,4.8964844h-1.9815063
	c0.0224609-3.7944336,3.1125488-6.8740234,6.9074707-6.8740234c3.7993164,0,6.8928223,3.0795898,6.9152832,6.8740234H49.0519409z
	 M32.2337646,29.8320923c-0.3685303-0.8905029-0.8273315-1.7365723-1.3861694-2.5184326
	c0.8521118-0.4467163,1.9116211-0.4484863,2.7738037,0.0043335C33.0598145,28.104248,32.6004639,28.9473877,32.2337646,29.8320923z
	 M28.8372192,27.9824219c0.7390747,0.9176025,1.3250732,1.9376221,1.7516479,3.0976562l0.9399414-0.3413086l-0.9067383,0.4414062
	c0.3105469,0.8598633,0.5058594,1.7910156,0.5805664,2.7783203c0.0228271,0.2587891,0.0296631,0.5180664,0.0303345,0.7768555
	h-1.9768677c-0.0099487-1.975769-0.6664429-3.8547974-1.8630981-5.3960571L28.8372192,27.9824219z M31.75,60
	c-6.2924194,0-12.2356567-2.5016479-16.6270752-6.9199219h33.2541504C43.9857178,57.4983521,38.0428467,60,31.75,60z
	 M51.6699219,26.9418945c2.1479492,2.0551758,3.3334961,4.8261719,3.3408203,7.793457h-1.979126
	c-0.0227051-4.8967896-4.0114746-8.8740234-8.9134521-8.8740234c-4.897644,0-8.8829346,3.9772339-8.9056396,8.8740234H33.234375
	c0.0009155-0.2893677,0.0151367-0.5772705,0.0388794-0.8638306c0.0006714-0.0095215,0.0007935-0.0186157,0.0012207-0.0281372
	c0.0778198-0.9116821,0.2700195-1.8071899,0.5756226-2.6739502c0.4316406-1.2392578,1.0874023-2.3842773,1.9521484-3.4072266
	c0.7915039-0.9467773,1.7265625-1.7407227,2.7841797-2.362793c1.1044922-0.6591797,2.3037109-1.1103516,3.559082-1.3408203
	c1.296875-0.2299805,2.5219727-0.2368164,3.7333984-0.0322266c1.0927734,0.1728516,2.1542969,0.5205078,3.1577148,1.034668
	C50.019043,25.5605469,50.9023438,26.1904297,51.6699219,26.9418945z M53.3378906,8.8808594l1.9423828,1.9423828
	L43.4691162,21.9099121c-0.3508911,0.0180054-0.7044678,0.050415-1.0610352,0.09729
	c-0.211792-0.2737427-0.4309692-0.5366821-0.6635742-0.7901611L53.3378906,8.8808594z M39.6713867,21.9501953
	c0.0288086,0.0273438,0.0756836,0.074707,0.1074219,0.0986328c0.1508789,0.1436768,0.2871094,0.2994995,0.4285889,0.4510498
	c-0.6757812,0.2163086-1.3313599,0.4871826-1.9628296,0.81427c-0.7854004-0.7215576-1.6879883-1.2757568-2.6594849-1.6715698
	l1.5664673-1.4717407C38.0968628,20.6571045,38.9451904,21.255127,39.6713867,21.9501953z M46.9755859,4.4375l1.9355469,1.9404297
	L36.2893677,18.2383423c-0.008728,0.0079346-0.0168457,0.0155029-0.0252686,0.0237427l-8.0244141,7.5404053
	c-0.0053101,0.0048218-0.0123291,0.0060425-0.0175171,0.0109863c-0.0048828,0.0046387-0.0063477,0.0111694-0.0111084,0.0158691
	l-3.260376,3.0637207l-0.4853516-0.4853516l0.0585938-0.0620117c0.0005493-0.0005493,0.0007935-0.0012817,0.0013428-0.0018311
	L46.9755859,4.4375z M27.3082275,22.4568481c-0.3878174,0.2589722-0.744751,0.5478516-1.0802002,0.855835
	c-0.0194702-0.0099487-0.0386353-0.0231323-0.0581055-0.0328979c-0.6148682-0.3155518-1.2592163-0.5743408-1.9226074-0.7861938
	c1.6326904-1.7671509,3.8013916-2.9320068,6.1591797-3.3355713L27.3082275,22.4568481z M20.3417969,23.8798828
	c0.6015625,0,1.1743164,0.0473633,1.7504883,0.1445312c0.0185547,0.003418,0.0864258,0.0141602,0.1054688,0.0166016
	c0.0600586,0.0102539,0.1186523,0.0224609,0.1083984,0.0161133c0.9342041,0.1738281,1.8239136,0.480957,2.6693726,0.8834839
	L23.5402832,26.46875c-1.0114746-0.3905029-2.1004639-0.6044922-3.1984863-0.6044922
	c-4.8963013,0-8.8806152,3.975647-8.9053955,8.8710938H9.4580078C9.4775391,28.7460938,14.3525391,23.8798828,20.3417969,23.8798828
	z" id="id_101" style="fill: rgb(255, 255, 255);"></path>
<path d="M12.4936523,47.5991211l0.3964844,0.3862305l-0.09375,0.5463867c-0.0639648,0.375,0.090332,0.7543945,0.3979492,0.9780273
	c0.309082,0.2241211,0.7172852,0.2529297,1.0532227,0.0761719l0.4902344-0.2578125l0.4902344,0.2578125
	c0.1464844,0.0766602,0.3061523,0.1147461,0.465332,0.1147461c0.2070312,0,0.4135742-0.0644531,0.5878906-0.190918
	c0.3076172-0.2236328,0.4619141-0.6030273,0.3979492-0.9780273l-0.09375-0.5463867l0.3964844-0.3862305
	c0.2724609-0.2661133,0.3706055-0.6630859,0.2529297-1.0253906c-0.1176758-0.3618164-0.4306641-0.6259766-0.8071289-0.6806641
	l-0.5483398-0.0795898l-0.2446289-0.496582c-0.168457-0.3413086-0.5161133-0.5576172-0.8969727-0.5576172
	c-0.3803711,0-0.7280273,0.2163086-0.8964844,0.5571289l-0.2456055,0.4970703l-0.5483398,0.0795898
	c-0.3764648,0.0546875-0.6894531,0.3188477-0.8071289,0.6806641C12.1225586,46.9360352,12.2207031,47.3334961,12.4936523,47.5991211
	z" id="id_102" style="fill: rgb(220, 20, 60);"></path>
<path d="M24.3984375,47.9853516l-0.09375,0.546875c-0.0639648,0.375,0.090332,0.7539062,0.3984375,0.9775391
	c0.1738281,0.1264648,0.3803711,0.190918,0.5874023,0.190918c0.1591797,0,0.3188477-0.0380859,0.465332-0.1147461
	l0.4902344-0.2578125l0.4902344,0.2578125c0.3374023,0.1767578,0.7456055,0.1479492,1.0532227-0.0761719
	c0.3076172-0.2236328,0.4619141-0.6030273,0.3979492-0.9780273l-0.09375-0.5463867l0.3964844-0.3862305
	c0.2724609-0.2661133,0.3706055-0.6630859,0.2529297-1.0253906c-0.1176758-0.3618164-0.4306641-0.6259766-0.8071289-0.6806641
	l-0.5483398-0.0795898l-0.2446289-0.496582c-0.168457-0.3413086-0.5161133-0.5576172-0.8969727-0.5576172
	c-0.3803711,0-0.7280273,0.2163086-0.8964844,0.5571289l-0.2456055,0.4970703l-0.5483398,0.0795898
	c-0.3764648,0.0546875-0.6894531,0.3188477-0.8071289,0.6806641c-0.1176758,0.3623047-0.0195312,0.7592773,0.2529297,1.0253906
	L24.3984375,47.9853516z" id="id_103" style="fill: rgb(222, 20, 54);"></path>
<path d="M35.90625,47.9853516l-0.09375,0.5463867c-0.0639648,0.375,0.090332,0.7543945,0.3979492,0.9780273
	c0.309082,0.2241211,0.7163086,0.2529297,1.0532227,0.0761719l0.4902344-0.2578125l0.4902344,0.2578125
	c0.1464844,0.0766602,0.3061523,0.1147461,0.465332,0.1147461c0.2070312,0,0.4135742-0.0644531,0.5874023-0.190918
	c0.3081055-0.2236328,0.4624023-0.6025391,0.3984375-0.9775391l-0.09375-0.546875l0.3969727-0.3862305
	c0.2724609-0.2661133,0.3706055-0.6630859,0.2529297-1.0253906c-0.1176758-0.3618164-0.4306641-0.6259766-0.8071289-0.6806641
	l-0.5483398-0.0795898l-0.2456055-0.4970703c-0.3369141-0.6831055-1.456543-0.6816406-1.793457,0.0004883l-0.2446289,0.496582
	l-0.5483398,0.0795898c-0.3764648,0.0546875-0.6894531,0.3188477-0.8071289,0.6806641
	c-0.1176758,0.3623047-0.0195312,0.7592773,0.2529297,1.0253906L35.90625,47.9853516z" id="id_104" style="fill: rgb(222, 27, 59);"></path>
<path d="M47.4145508,47.9853516l-0.09375,0.5463867c-0.0639648,0.375,0.090332,0.7543945,0.3979492,0.9780273
	c0.3085938,0.2241211,0.7167969,0.2529297,1.0532227,0.0761719l0.4902344-0.2578125l0.4902344,0.2578125
	c0.1464844,0.0766602,0.3061523,0.1147461,0.465332,0.1147461c0.2070312,0,0.4135742-0.0644531,0.5878906-0.190918
	c0.3076172-0.2236328,0.4619141-0.6030273,0.3979492-0.9780273l-0.09375-0.5463867l0.3964844-0.3862305
	c0.2729492-0.265625,0.3710938-0.6630859,0.253418-1.0253906c-0.1176758-0.3618164-0.4306641-0.6259766-0.8071289-0.6806641
	l-0.5483398-0.0795898l-0.2456055-0.4970703c-0.3369141-0.6831055-1.456543-0.6816406-1.793457,0.0004883l-0.2446289,0.496582
	l-0.5483398,0.0795898c-0.3764648,0.0546875-0.6894531,0.3188477-0.8071289,0.6806641
	c-0.1176758,0.3623047-0.0195312,0.7592773,0.2529297,1.0253906L47.4145508,47.9853516z" id="id_105" style="fill: rgb(219, 27, 59);"></path>
<path d="M14.4726562,17.5737305c0.1396484,0.0673828,0.2875977,0.0991211,0.4335938,0.0991211
	c0.371582,0,0.7290039-0.2084961,0.9013672-0.565918l0.7514648-1.559082
	c0.5571289-1.1552734,0.5356445-2.5239258-0.0566406-3.6616211c-0.300293-0.5761719-0.3129883-1.2705078-0.0351562-1.8569336
	l1.0136719-2.1401367c0.2363281-0.4995117,0.0234375-1.0957031-0.4755859-1.3320312
	c-0.4975586-0.2363281-1.0957031-0.0239258-1.3320312,0.4755859L14.659668,9.1728516
	c-0.5444336,1.1494141-0.5185547,2.5087891,0.0688477,3.637207c0.3022461,0.5810547,0.3134766,1.2797852,0.0288086,1.8696289
	l-0.7514648,1.559082C13.7661133,16.7363281,13.9750977,17.3339844,14.4726562,17.5737305z" id="id_106" style="fill: rgb(255, 255, 255);"></path>
<path d="M23.6455078,16.3955078c0.1396484,0.0673828,0.2875977,0.0991211,0.4335938,0.0991211
	c0.371582,0,0.7290039-0.2084961,0.9013672-0.565918l0.7514648-1.559082
	c0.5571289-1.1552734,0.5356445-2.5239258-0.0566406-3.6616211C25.375,10.1318359,25.3623047,9.4375,25.6401367,8.8510742
	l1.0136719-2.1401367c0.2363281-0.4995117,0.0234375-1.0957031-0.4755859-1.3320312
	c-0.4985352-0.2358398-1.0957031-0.0234375-1.3320312,0.4755859l-1.0136719,2.1401367
	c-0.5444336,1.1494141-0.5185547,2.5087891,0.0688477,3.637207c0.3022461,0.5810547,0.3134766,1.2797852,0.0288086,1.8696289
	l-0.7514648,1.559082C22.9389648,15.5581055,23.1479492,16.1557617,23.6455078,16.3955078z" id="id_107" style="fill: rgb(255, 255, 255);"></path>
<path d="M19.1459961,14.2236328c0.1401367,0.0673828,0.2880859,0.0991211,0.4335938,0.0991211
	c0.3720703,0,0.7290039-0.2084961,0.9013672-0.565918l0.7509766-1.5595703
	c0.5566406-1.1542969,0.5356445-2.5229492-0.0566406-3.6616211c-0.2998047-0.5761719-0.3129883-1.2700195-0.034668-1.8574219
	l1.0131836-2.1396484c0.2363281-0.4990234,0.0234375-1.0952148-0.4760742-1.331543
	c-0.4990234-0.2353516-1.0947266-0.0239258-1.331543,0.4760742l-1.0131836,2.1391602
	c-0.5444336,1.1489258-0.519043,2.5087891,0.0683594,3.6367188c0.3022461,0.581543,0.3129883,1.2802734,0.0288086,1.8701172
	l-0.7509766,1.5595703C18.4394531,13.3867188,18.6484375,13.9838867,19.1459961,14.2236328z" id="id_108" style="fill: rgb(255, 255, 255);"></path>
</svg>