<?xml version="1.0" standalone="no"?>
<!DOCTYPE svg PUBLIC "-//W3C//DTD SVG 20010904//EN"
 "http://www.w3.org/TR/2001/REC-SVG-20010904/DTD/svg10.dtd">
<svg version="1.0" xmlns="http://www.w3.org/2000/svg"
 width="700.000000pt" height="700.000000pt" viewBox="0 0 700.000000 700.000000"
 preserveAspectRatio="xMidYMid meet">
<metadata>
Created by potrace 1.14, written by Peter Selinger 2001-2017
</metadata>
<g transform="translate(0.000000,700.000000) scale(0.100000,-0.100000)"
fill="#000000" stroke="none">
<path d="M5081 6764 c-20 -15 -99 -94 -191 -194 -18 -19 -88 -93 -155 -165
-68 -71 -137 -146 -155 -165 -18 -19 -87 -93 -155 -165 -67 -71 -139 -148
-160 -170 -20 -22 -94 -100 -163 -173 -69 -74 -133 -142 -142 -151 -18 -22
-247 -265 -345 -367 l-70 -74 -84 -1 c-46 -1 -104 -6 -130 -11 -25 -5 -59 -11
-76 -14 -16 -2 -38 -7 -47 -10 -9 -3 -27 -7 -39 -9 -75 -15 -247 -86 -354
-147 -95 -54 -187 -129 -295 -238 -84 -85 -121 -116 -135 -113 -74 15 -292 8
-405 -12 -439 -77 -825 -368 -1018 -768 -45 -93 -95 -226 -107 -288 -15 -73
-35 -212 -37 -264 -3 -59 -3 -59 -38 -66 -40 -8 -89 -58 -91 -92 -2 -38 2
-281 5 -312 2 -16 7 -64 11 -105 4 -41 8 -82 10 -90 2 -8 10 -55 20 -105 148
-802 641 -1495 1360 -1912 245 -142 594 -270 865 -316 19 -4 51 -9 70 -13 258
-45 707 -40 950 11 14 3 39 8 55 11 119 21 356 94 495 151 216 89 408 198 609
346 124 91 142 107 306 272 147 147 149 150 230 255 218 284 377 599 476 945
17 60 33 121 36 135 2 14 8 41 13 60 10 37 35 206 45 300 12 112 14 361 3 388
-6 15 -12 63 -14 107 -8 219 -55 409 -147 591 -131 260 -370 500 -626 629 -90
45 -244 101 -316 115 -33 6 -66 13 -73 15 -11 4 36 52 163 169 22 21 63 59 90
85 28 26 127 119 220 206 94 87 177 166 186 174 9 9 78 75 155 146 76 72 172
162 214 201 41 40 99 93 128 120 78 70 99 123 71 177 -7 12 -102 112 -213 223
-206 206 -224 219 -283 204 -28 -7 -53 -30 -208 -196 -71 -76 -162 -172 -201
-214 -39 -41 -88 -93 -109 -115 -59 -64 -150 -160 -286 -305 -70 -74 -144
-154 -166 -176 -136 -146 -289 -308 -353 -375 l-75 -79 -87 59 c-83 57 -86 60
-69 78 17 17 233 221 311 293 19 18 98 92 175 164 77 73 154 145 170 160 17
16 89 83 160 151 72 67 148 139 170 159 339 317 375 353 376 379 1 12 2 29 3
37 1 8 -5 26 -13 40 -21 36 -381 398 -413 416 -36 19 -78 18 -107 -2z m167
-357 l103 -103 -74 -70 c-40 -38 -136 -127 -212 -199 -76 -71 -152 -143 -170
-160 -36 -35 -271 -254 -330 -310 -22 -20 -74 -69 -115 -108 -42 -40 -133
-126 -204 -192 -71 -66 -150 -140 -176 -165 -99 -94 -296 -279 -325 -306 -16
-15 -91 -84 -165 -154 -74 -70 -151 -142 -170 -160 -77 -71 -319 -299 -395
-372 -44 -42 -91 -86 -104 -97 -13 -11 -59 -55 -103 -96 l-79 -76 -24 23 c-14
13 -25 25 -25 28 0 6 18 25 200 220 65 69 134 143 155 165 20 22 92 99 160
170 67 72 137 146 155 165 18 19 83 89 145 155 62 66 128 136 146 156 19 20
90 96 159 169 69 73 140 149 159 169 18 20 86 92 151 161 65 69 135 143 155
165 21 22 96 101 167 176 71 75 137 146 146 157 10 11 77 83 149 159 72 76
145 154 163 173 144 155 245 260 250 260 3 0 51 -47 108 -103z m792 -589 c0
-4 -23 -29 -51 -55 -28 -26 -73 -68 -99 -93 -44 -42 -252 -237 -330 -310 -19
-18 -91 -86 -160 -150 -69 -65 -144 -135 -166 -156 -23 -22 -96 -91 -164 -154
-68 -63 -147 -137 -175 -165 -126 -120 -140 -131 -170 -133 -16 -1 -42 -4 -57
-6 -23 -3 -35 5 -64 41 l-37 45 44 45 c24 26 53 56 64 68 29 32 277 296 371
395 126 133 199 212 240 255 38 41 255 272 333 354 23 25 82 87 129 138 l86
92 103 -102 c57 -56 103 -105 103 -109z m-2724 -925 c-4 -5 -63 -66 -129 -137
-181 -191 -197 -208 -252 -251 -27 -22 -52 -43 -55 -47 -3 -4 -47 10 -98 32
-51 22 -99 40 -107 40 -33 0 -9 31 85 111 85 71 196 140 295 181 71 30 106 42
194 67 35 10 75 12 67 4z m803 -129 c103 -60 271 -198 271 -223 0 -3 -18 -12
-40 -19 -23 -7 -62 -23 -89 -35 -79 -39 -76 -39 -133 7 -60 48 -140 98 -193
120 -31 13 -48 36 -27 36 4 0 39 31 77 70 39 38 74 70 79 70 5 0 30 -12 55
-26z m-332 -326 c58 -21 141 -65 178 -94 20 -15 19 -16 -19 -47 -21 -17 -57
-48 -80 -69 -22 -21 -44 -38 -48 -38 -4 0 -27 11 -50 24 -50 27 -155 55 -217
58 l-42 1 87 81 c48 45 92 86 98 93 15 17 27 16 93 -9z m-1379 -63 c63 -9 208
-52 271 -81 l54 -24 -74 -75 c-41 -42 -75 -79 -77 -84 -1 -4 -33 2 -70 14
-272 88 -583 43 -826 -120 -261 -173 -425 -468 -435 -778 l-1 -28 -107 3 -108
3 1 30 c3 104 16 187 49 298 115 397 441 712 845 817 136 36 330 46 478 25z
m2612 -3 c258 -47 473 -160 651 -342 207 -210 328 -480 342 -757 l4 -73 -109
0 -108 0 -1 43 c-11 395 -299 764 -693 886 -103 32 -111 33 -256 37 -154 4
-254 -13 -387 -66 -350 -140 -599 -492 -612 -867 l-1 -33 -108 0 -109 0 3 48
c16 273 107 506 279 712 74 89 125 135 222 206 62 45 206 123 268 145 62 22
84 29 125 40 44 11 57 14 150 28 61 10 272 5 340 -7z m-1404 -338 c30 -8 54
-19 54 -24 0 -5 -17 -36 -39 -69 -21 -33 -53 -92 -72 -131 l-33 -71 -35 73
c-20 40 -53 101 -75 136 -21 35 -35 66 -32 69 11 11 100 32 139 32 22 1 63 -6
93 -15z m-1219 -99 c12 -4 22 -15 21 -24 -5 -59 3 -71 127 -195 69 -70 136
-128 150 -132 39 -10 86 3 116 32 l26 25 32 -51 c59 -96 96 -208 107 -322 l6
-68 -106 0 c-77 0 -108 3 -110 13 -2 6 -8 43 -14 81 -44 289 -350 494 -637
429 -84 -19 -111 -30 -185 -79 -100 -65 -168 -150 -210 -261 -17 -46 -33 -126
-33 -170 0 -10 -29 -13 -109 -13 l-108 0 0 28 c0 123 56 283 140 407 97 140
298 275 449 298 18 3 35 8 38 11 8 8 274 0 300 -9z m2606 -4 c229 -59 410
-210 510 -423 32 -68 67 -206 67 -266 l0 -43 -107 3 -108 3 -2 35 c-18 219
-187 422 -401 479 -176 48 -387 -12 -518 -146 -89 -91 -154 -231 -154 -335 l0
-38 -111 0 -111 0 6 64 c7 83 12 106 44 191 52 140 118 230 251 344 147 124
432 184 634 132z m-1788 -77 c31 -47 74 -123 96 -169 31 -68 42 -83 56 -78 17
5 17 5 0 -8 -16 -13 -17 -18 -3 -56 24 -68 44 -185 50 -289 l3 -54 -108 0
-109 0 -1 28 c-4 171 -58 341 -157 496 l-44 69 79 73 c43 41 79 74 79 74 1 0
27 -39 59 -86z m-851 -372 c93 -44 166 -143 179 -245 l5 -37 -322 2 -321 3 3
30 c3 31 31 112 44 130 56 75 131 129 202 145 59 14 144 3 210 -28z m2561 18
c56 -17 127 -70 164 -124 31 -44 66 -151 55 -167 -3 -5 -146 -9 -319 -9 -242
0 -314 3 -318 13 -5 15 15 94 33 127 41 81 128 150 210 168 55 11 121 9 175
-8z m1110 -617 c-3 -54 -7 -118 -10 -143 -8 -64 -17 -132 -22 -155 -2 -11 -6
-38 -9 -60 -4 -22 -10 -42 -15 -45 -4 -3 -1134 -5 -2511 -5 l-2503 0 -12 47
c-12 49 -16 77 -32 218 -9 73 -16 209 -12 233 1 4 1155 7 2566 7 l2565 0 -5
-97z m-130 -693 c-86 -254 -211 -494 -363 -701 l-56 -75 -2014 0 -2015 1 -68
95 c-126 174 -225 358 -308 568 -27 70 -52 138 -56 152 l-6 25 2454 0 2454 0
-22 -65z m-625 -1001 c0 -24 -248 -229 -395 -326 -288 -191 -657 -337 -980
-389 -21 -3 -47 -7 -58 -9 -11 -3 -52 -7 -91 -11 -39 -3 -82 -8 -96 -10 -32
-5 -335 -6 -375 0 -16 2 -61 7 -99 11 -319 29 -726 163 -994 326 -35 22 -65
39 -67 39 -11 0 -186 127 -272 197 -95 78 -193 166 -193 174 0 2 815 4 1810 4
996 0 1810 -3 1810 -6z"/>
<path d="M1568 2092 c-29 -15 -70 -63 -80 -93 -2 -6 -21 -13 -43 -16 -67 -9
-115 -59 -110 -113 1 -8 3 -22 4 -30 0 -8 16 -32 35 -52 32 -34 34 -42 29 -85
-2 -27 0 -60 6 -75 22 -58 100 -78 165 -43 33 18 36 18 73 2 62 -27 89 -28
125 -3 40 26 59 78 49 127 -7 30 -4 38 28 72 32 33 36 44 36 88 0 45 -4 54
-33 80 -18 16 -42 29 -55 29 -42 0 -63 11 -75 39 -32 72 -96 102 -154 73z"/>
<path d="M2828 2091 c-29 -14 -70 -62 -80 -92 -2 -6 -21 -13 -43 -16 -53 -7
-72 -18 -95 -56 -33 -54 -22 -97 41 -160 12 -11 15 -28 12 -64 -6 -57 8 -96
39 -117 37 -24 79 -25 126 -2 l42 20 44 -21 c27 -14 55 -20 73 -17 67 11 108
74 92 143 -7 31 -4 39 26 72 86 96 37 197 -100 208 -6 1 -20 21 -33 45 -34 63
-88 85 -144 57z"/>
<path d="M4080 2088 c-21 -12 -63 -62 -72 -88 -2 -5 -15 -11 -31 -14 -76 -13
-113 -41 -123 -90 -7 -40 9 -81 45 -118 24 -25 27 -34 21 -61 -15 -66 10 -120
66 -143 29 -12 39 -12 76 2 73 26 77 27 100 12 56 -37 128 -24 162 27 14 21
17 41 14 82 -4 46 -1 57 19 79 40 43 51 68 48 103 -5 54 -34 84 -98 100 -45
12 -58 20 -67 42 -26 63 -105 96 -160 67z"/>
<path d="M5328 2083 c-15 -9 -34 -34 -44 -55 -15 -33 -22 -38 -63 -44 -59 -9
-111 -57 -111 -103 0 -38 19 -78 53 -110 14 -13 24 -28 22 -35 -12 -35 -12
-83 0 -105 33 -65 89 -80 165 -46 36 16 45 17 63 5 99 -61 195 -3 184 113 -4
47 -1 54 29 86 19 19 34 37 35 40 13 93 -21 140 -109 154 -32 5 -61 30 -62 53
0 6 -11 21 -24 33 -33 31 -101 38 -138 14z"/>
<path d="M2275 6648 c-28 -16 -42 -35 -69 -93 -13 -27 -44 -93 -69 -147 -77
-163 -84 -274 -25 -417 49 -119 45 -167 -26 -314 -48 -98 -56 -123 -50 -152
14 -77 101 -113 168 -70 23 16 112 185 141 270 34 100 25 218 -26 336 -17 38
-24 72 -23 114 0 61 -1 59 94 259 48 101 52 129 26 168 -35 53 -95 72 -141 46z"/>
<path d="M2761 6407 c-16 -8 -44 -53 -88 -142 -130 -263 -137 -330 -53 -560
30 -81 23 -127 -39 -258 -59 -125 -63 -142 -46 -184 26 -61 103 -84 158 -48
31 20 129 215 151 301 16 60 14 176 -2 229 -6 17 -20 53 -32 80 -15 33 -23 71
-23 110 -1 62 2 70 92 254 17 36 35 80 41 99 24 89 -72 161 -159 119z"/>
<path d="M1787 6289 c-16 -4 -36 -14 -44 -21 -17 -13 -134 -251 -159 -322 -35
-97 -26 -230 22 -338 44 -96 38 -148 -30 -291 -45 -95 -55 -126 -51 -155 10
-80 107 -120 170 -70 35 27 133 232 149 313 17 83 11 160 -19 241 -61 162 -60
179 29 369 36 77 66 153 66 168 0 25 -24 87 -34 87 -2 0 -19 6 -37 14 -22 8
-44 10 -62 5z"/>
</g>
</svg>
